<svg xmlns="http://www.w3.org/2000/svg" viewBox="0 0 433.3 498.8"><defs><style>.cls-1{fill:none;stroke:#231f20;stroke-miterlimit:10;stroke-width:5px;}</style></defs><g id="Layer_1" data-name="Layer 1"><path class="cls-1" d="M644.66,347.64l-53.79,36.42s-34.72,15.66,5.79,64.34l34,48,2,3.41s34-.34,46.3,6.47c0,0,32,3.4,25.19,39.83,0,0,.34,23.15-6.8,33.36,0,0,11.91,22.81,30.63,10.55l48.34-34.38s32.34-18.73-1.7-60.6l-59.23-92.93" transform="translate(-359.49 -97.34)"/></g><g id="Layer_2" data-name="Layer 2"><path class="cls-1" d="M689.6,365s-22-25.69-44.26-17.62l-.68.26,3.06-9.87L660,296.23c7.15-30.29,36.76-5.1,36.76-5.1,31.32,13.61,19.41,29.27,19.41,29.27L691.3,363.3c-15,23.83,7.15,37.44,7.15,37.44,27.91,7.83,37.1-15,37.1-15l25.19-41.54c36.43-55.83-11.23-81-11.23-81L642.28,195.47l2.38-13.28C651.13,165.85,650,145,650,145c7-28-40-40-40-40-44-11-74-1-74-1-62,8-25,94-25,94s-65,36-114,70-5,76-5,76,19.47,24.57,36.32,13.85c0,0,22.21-9.19,10.72-36.76,0,0-18.38-16.09,6.13-26l25.28-12.25s20.68-8.43,22.21,11.49l10.72,38.29.77,5.37.76,4.59,58.22,39.83s15.32,9.19,13,24.51-42.89,69.7-42.89,69.7-3.83,13.79,10,23l89.53.26" transform="translate(-359.49 -97.34)"/><path class="cls-1" d="M397,268l-19.23-56.45s-10-21.44,3.83-32.17c0,0,17.61-9.95,23.74,15.32l19.92,53.62" transform="translate(-359.49 -97.34)"/><path class="cls-1" d="M445.17,295s61.28,155.49,88.09,181.53" transform="translate(-359.49 -97.34)"/><path class="cls-1" d="M419.13,361.68S491.89,557,527.89,583c0,0,149.88,8.17,169.54-3.57" transform="translate(-359.49 -97.34)"/><path class="cls-1" d="M504.91,342.53S480.4,338.7,472,357.85" transform="translate(-359.49 -97.34)"/><path class="cls-1" d="M435.21,405.34l-61.27,91.92s-25.28,33.7-2.3,52.08l55.91,39.83s17.62,16.09,46.73-19.15L498,539.38" transform="translate(-359.49 -97.34)"/><path class="cls-1" d="M501.09,141.85s72.63,53,148.91,3.15c0,0,4.28,120.17-72.32,127.83C577.68,272.83,506.45,277.43,501.09,141.85Z" transform="translate(-359.49 -97.34)"/><path class="cls-1" d="M557,166.36s-20.68,48.26,3.83,104.17" transform="translate(-359.49 -97.34)"/><path class="cls-1" d="M598.36,164.83s14.55,44.43-.76,103.4" transform="translate(-359.49 -97.34)"/><path class="cls-1" d="M506.45,181.68s63.49,52.34,138.21.51" transform="translate(-359.49 -97.34)"/></g></svg>