<svg id="Layer_2" data-name="Layer 2" xmlns="http://www.w3.org/2000/svg" xmlns:xlink="http://www.w3.org/1999/xlink" viewBox="0 0 369.49 321.17"><defs><style>.cls-1{fill:none;stroke:#231f20;stroke-miterlimit:10;stroke-width:8px;}</style></defs><path class="cls-1" d="M107,165l2,172s-9,7,10,5l10,.19s4.76,6.13,3.4-20.08l.68-153.2s4.77-15.65,31.32-13.95h6l253.28.67s25-2.55,21.44,22l.51,154.21s-6.12,12.76,12.26,10.72c0,0,12.76,6.13,10.21-18.89l-.51-158.81s-3.06-33.19-39.83-33.19H138.15S114.66,134.53,107,165Z" transform="translate(-102.87 -127.64)"/><path class="cls-1" d="M169.81,310.87l.51-155.9Z" transform="translate(-102.87 -127.64)"/><polyline class="cls-1" points="30.68 202.13 66.94 180.68 306.43 179.66 342.17 200.09"/><line class="cls-1" x1="305.41" y1="28.51" x2="306.43" y2="179.66"/><line class="cls-1" x1="209.41" y1="28.51" x2="67.45" y2="172.51"/><line class="cls-1" x1="247.19" y1="26.98" x2="96.3" y2="179.4"/><line class="cls-1" x1="281.92" y1="28" x2="131.53" y2="178.89"/><line class="cls-1" x1="303.87" y1="41.28" x2="165.75" y2="181.45"/><line class="cls-1" x1="305.41" y1="75.49" x2="203.02" y2="180.43"/><line class="cls-1" x1="306.94" y1="114.3" x2="239.15" y2="179.28"/><line class="cls-1" x1="307.45" y1="146.98" x2="274.83" y2="179.72"/><line class="cls-1" x1="102.4" y1="28.22" x2="67.96" y2="61.19"/><line class="cls-1" x1="137.92" y1="28" x2="68.87" y2="97.85"/><line class="cls-1" x1="171.62" y1="26.98" x2="67.39" y2="134.67"/><line class="cls-1" x1="256.9" y1="27.49" x2="302.97" y2="77.93"/><line class="cls-1" x1="67.99" y1="129.84" x2="114.06" y2="180.28"/><line class="cls-1" x1="69.18" y1="97.5" x2="152.22" y2="181.7"/><line class="cls-1" x1="70.61" y1="62.24" x2="187.96" y2="181.7"/><line class="cls-1" x1="74.9" y1="29.8" x2="223.7" y2="180.17"/><line class="cls-1" x1="112.28" y1="27.62" x2="261.08" y2="177.99"/><line class="cls-1" x1="148.03" y1="29.67" x2="296.83" y2="180.04"/><line class="cls-1" x1="183.16" y1="29.8" x2="300.51" y2="149.26"/><line class="cls-1" x1="219.21" y1="30.07" x2="302.24" y2="114.27"/><path class="cls-1" d="M324.53,454.36" transform="translate(-102.87 -127.64)"/><image width="512" height="512" transform="translate(161.15 257.02) scale(0.13)"/></svg>