<svg id="Layer_2" data-name="Layer 2" xmlns="http://www.w3.org/2000/svg" viewBox="0 0 447.6 265.27"><defs><style>.cls-1{fill:none;stroke:#231f20;stroke-miterlimit:10;stroke-width:8px;}</style></defs><path class="cls-1" d="M77.16,144.88,79.59,354s-11,8.52,12.16,6.08l12.11.24s5.79,7.45,4.14-24.43l.83-186.29s5.79-19,38.08-17l7.25,0,308,.8s30.43-3.1,26.08,26.71l.62,187.53s-7.45,15.53,14.91,13c0,0,15.52,7.45,12.42-23l-.63-193.13s-3.72-40.36-48.43-40.36H115S86.47,107.83,77.16,144.88Z" transform="translate(-73 -100.31)"/><path class="cls-1" d="M153.54,322.27l.62-189.58Z" transform="translate(-73 -100.31)"/><polyline class="cls-1" points="36.45 244.94 80.54 218.86 371.77 217.62 415.24 242.45"/><line class="cls-1" x1="370.53" y1="33.81" x2="371.78" y2="217.62"/><line class="cls-1" x1="253.79" y1="33.81" x2="81.16" y2="208.92"/><line class="cls-1" x1="299.74" y1="31.94" x2="116.24" y2="217.3"/><line class="cls-1" x1="341.97" y1="33.19" x2="159.09" y2="216.68"/><line class="cls-1" x1="368.67" y1="49.33" x2="200.7" y2="219.79"/><line class="cls-1" x1="370.53" y1="90.94" x2="246.03" y2="218.55"/><line class="cls-1" x1="372.4" y1="138.13" x2="289.96" y2="217.15"/><line class="cls-1" x1="373.02" y1="177.87" x2="333.35" y2="217.69"/><line class="cls-1" x1="123.66" y1="33.46" x2="81.78" y2="73.55"/><line class="cls-1" x1="166.85" y1="33.19" x2="82.89" y2="118.12"/><line class="cls-1" x1="207.84" y1="31.94" x2="81.09" y2="162.9"/><line class="cls-1" x1="311.54" y1="32.56" x2="367.56" y2="93.91"/><line class="cls-1" x1="81.82" y1="157.03" x2="137.84" y2="218.38"/><line class="cls-1" x1="83.26" y1="117.71" x2="184.24" y2="220.1"/><line class="cls-1" x1="85.01" y1="74.83" x2="227.71" y2="220.1"/><line class="cls-1" x1="90.22" y1="35.38" x2="271.18" y2="218.24"/><line class="cls-1" x1="135.68" y1="32.73" x2="316.63" y2="215.59"/><line class="cls-1" x1="179.15" y1="35.21" x2="360.1" y2="218.07"/><line class="cls-1" x1="221.87" y1="35.38" x2="364.57" y2="180.65"/><line class="cls-1" x1="265.71" y1="35.7" x2="366.69" y2="138.1"/><path class="cls-1" d="M294.66,472.74" transform="translate(-73 -100.31)"/></svg>