<svg id="Layer_2" data-name="Layer 2" xmlns="http://www.w3.org/2000/svg" viewBox="0 0 382.63 413.6"><defs><style>.cls-1{fill:none;stroke:#231f20;stroke-miterlimit:10;stroke-width:9px;}.cls-2{fill:#231f20;}</style></defs><path class="cls-1" d="M266.47,167a26.6,26.6,0,0,1,4.16-6c4.37-4.63,11.71-8,19.84,7l1,268-1,14s-15,25-27.21.11l2-283.58,1.7-4.08" transform="translate(-116.35 -151.85)"/><path class="cls-1" d="M124.07,166.28a26.6,26.6,0,0,1,4.16-6c4.37-4.63,11.71-8,19.84,7l1,268-1,14s-15,25-27.22.11l2.05-283.58,1.7-4.08" transform="translate(-116.35 -151.85)"/><path class="cls-1" d="M138.66,157.94l135.57-.75Z" transform="translate(-116.35 -151.85)"/><path class="cls-1" d="M150.66,421.43h0Z" transform="translate(-116.35 -151.85)"/><path class="cls-2" d="M170.15,337.77s-12.26,0-7.83-8.51c0,0-1-4.09,8.51-3.41l72.85-.34s16,2.38.34,12.94Z" transform="translate(-116.35 -151.85)"/><path class="cls-2" d="M170.15,311.55s-12.26,0-7.83-8.51c0,0-1-4.08,8.51-3.4l72.85-.34s16,2.38.34,12.93Z" transform="translate(-116.35 -151.85)"/><path class="cls-2" d="M170.49,286.36s-12.26,0-7.83-8.51c0,0-1-4.08,8.51-3.4l72.85-.34s16,2.38.34,12.93Z" transform="translate(-116.35 -151.85)"/><path class="cls-2" d="M169.47,260.49s-12.26,0-7.83-8.51c0,0-1-4.09,8.51-3.41l72.85-.34s16,2.39.34,12.94Z" transform="translate(-116.35 -151.85)"/><path class="cls-1" d="M135,460.09l135.57-.74Z" transform="translate(-116.35 -151.85)"/><path class="cls-1" d="M138.53,507.07l135.58-.74Z" transform="translate(-116.35 -151.85)"/><path class="cls-1" d="M135,460.09s-5.75,47.1,3.57,47,135.58-.74,135.58-.74,8.55,9.82,3.95-45.84" transform="translate(-116.35 -151.85)"/><path class="cls-1" d="M146.83,505.94s1,31.66,16.34,27.06l89.36-1s11.75,2.55,12.77-23.49" transform="translate(-116.35 -151.85)"/><path class="cls-1" d="M192.79,534s5.61,30.13,12.25,26c0,0,10.73,7.15,11.24-26" transform="translate(-116.35 -151.85)"/><path class="cls-1" d="M469.48,167.24a26.78,26.78,0,0,1,4.17-6c4.36-4.62,11.71-8,19.83,7l1,268-1,14s-15,24.95-27.21.1l2-283.57,1.7-4.09" transform="translate(-116.35 -151.85)"/><path class="cls-1" d="M327.08,166.52a26.78,26.78,0,0,1,4.17-6c4.36-4.62,11.7-8,19.83,7l1,268-1,14s-15,25-27.21.1l2-283.57,1.7-4.09" transform="translate(-116.35 -151.85)"/><path class="cls-1" d="M341.67,158.17l135.58-.74Z" transform="translate(-116.35 -151.85)"/><path class="cls-1" d="M353.67,421.66h0Z" transform="translate(-116.35 -151.85)"/><path class="cls-2" d="M373.16,338s-12.25,0-7.83-8.51c0,0-1-4.08,8.51-3.4l72.85-.34s16,2.38.34,12.93Z" transform="translate(-116.35 -151.85)"/><path class="cls-2" d="M373.16,311.79s-12.25,0-7.83-8.51c0,0-1-4.09,8.51-3.41l72.85-.34s16,2.39.34,12.94Z" transform="translate(-116.35 -151.85)"/><path class="cls-2" d="M373.5,286.6s-12.25,0-7.83-8.51c0,0-1-4.09,8.51-3.41l72.85-.34s16,2.39.34,12.94Z" transform="translate(-116.35 -151.85)"/><path class="cls-2" d="M372.48,260.73s-12.25,0-7.83-8.52c0,0-1-4.08,8.51-3.4l72.85-.34s16,2.38.34,12.94Z" transform="translate(-116.35 -151.85)"/><path class="cls-1" d="M338,460.33l135.57-.74Z" transform="translate(-116.35 -151.85)"/><path class="cls-1" d="M341.54,507.31l135.58-.74Z" transform="translate(-116.35 -151.85)"/><path class="cls-1" d="M338,460.33s-5.74,47.09,3.57,47,135.58-.74,135.58-.74,8.55,9.81,4-45.84" transform="translate(-116.35 -151.85)"/><path class="cls-1" d="M349.84,506.17s1,31.66,16.34,27.07l89.36-1s11.75,2.56,12.77-23.48" transform="translate(-116.35 -151.85)"/><path class="cls-1" d="M395.8,534.26s5.62,30.12,12.25,26c0,0,10.73,7.15,11.24-26" transform="translate(-116.35 -151.85)"/></svg>