<svg id="Layer_2" data-name="Layer 2" xmlns="http://www.w3.org/2000/svg" viewBox="0 0 409.22 408.63"><defs><style>.cls-1{fill:none;stroke:#231f20;stroke-miterlimit:10;stroke-width:10px;}.cls-2{fill:#231f20;}</style></defs><path class="cls-1" d="M203,134.82s-2-63.6,69.4-57.71c0,0,78.59-11.78,78.59,58.89" transform="translate(-71.79 -71.37)"/><rect class="cls-1" x="113.21" y="62.63" width="185" height="98" rx="12"/><rect class="cls-2" x="111.21" y="106.62" width="131" height="14" rx="7"/><circle class="cls-2" cx="267.71" cy="114.13" r="8.5"/><path class="cls-1" d="M206,232s-5,90,71,86,75-84,75-84" transform="translate(-71.79 -71.37)"/><path class="cls-1" d="M344,280s128,17,132,102v83s1,10-22,10L88,473s-9,10-9-37c0,0-31-147,139-155" transform="translate(-71.79 -71.37)"/><rect class="cls-2" x="123.02" y="427.02" width="84" height="15.96" rx="7" transform="translate(-341.76 528.65) rotate(-90)"/><rect class="cls-2" x="348.02" y="426.85" width="84" height="15.96" rx="7" transform="translate(-116.59 753.48) rotate(-90)"/><rect class="cls-2" x="6.62" y="360.84" width="84" height="15.96" rx="7"/><rect class="cls-2" x="319.89" y="360.07" width="84" height="15.96" rx="7"/><rect class="cls-2" x="150.62" y="361.54" width="46.21" height="15.26" rx="7"/><rect class="cls-2" x="211.51" y="394.7" width="67.91" height="15.67" rx="7" transform="translate(-228.86 576.62) rotate(-90)"/><rect class="cls-2" x="215.69" y="374.99" width="37.47" height="16.83" rx="7" transform="translate(-244.16 121.06) rotate(-33.41)"/><rect class="cls-2" x="202.64" y="360.81" width="46.21" height="15.26" rx="7"/><rect class="cls-2" x="263.53" y="393.97" width="67.91" height="15.67" rx="7" transform="translate(-176.11 627.92) rotate(-90)"/><rect class="cls-2" x="267.72" y="374.26" width="37.47" height="16.83" rx="7" transform="translate(-235.16 149.59) rotate(-33.41)"/></svg>