<svg id="Layer_2" data-name="Layer 2" xmlns="http://www.w3.org/2000/svg" viewBox="0 0 324.34 221.54"><defs><style>.cls-1,.cls-3{fill:none;stroke:#231f20;stroke-miterlimit:10;}.cls-1{stroke-width:11px;}.cls-2{fill:#231f20;}.cls-3{stroke-width:9px;}</style></defs><circle class="cls-1" cx="76.95" cy="50.73" r="25.53"/><circle class="cls-1" cx="162.86" cy="111.11" r="25.53"/><circle class="cls-1" cx="76.61" cy="172.52" r="25.53"/><circle class="cls-1" cx="248.42" cy="171.83" r="25.53"/><circle class="cls-1" cx="248.42" cy="51.08" r="25.53"/><circle class="cls-2" cx="77.13" cy="172" r="5.35"/><circle class="cls-2" cx="249.11" cy="171.83" r="5.35"/><circle class="cls-2" cx="248.42" cy="50.39" r="5.35"/><circle class="cls-2" cx="75.92" cy="50.39" r="5.35"/><path class="cls-3" d="M72.69,293.11s-2.07-40,29-40l253.24-.69s31,3.45,31.74,29l.69,157.33s-4.83,26.91-22.77,26.22H102.36s-29-1.38-30.36-30.36Z" transform="translate(-67.5 -247.9)"/><path class="cls-3" d="M101.67,253.09l.69,211.84Z" transform="translate(-67.5 -247.9)"/><polyline class="cls-3" points="162.52 219.1 161.83 7.26 162.52 219.1"/><polyline class="cls-3" points="289.48 215.65 288.79 3.81 289.48 215.65"/><polygon class="cls-3" points="34.64 96.22 20.9 95.86 21.6 124.4 34.64 124.76 34.64 96.22"/><polyline class="cls-3" points="304.44 125.43 304.44 96.89 290.7 96.53"/><line class="cls-3" x1="304.9" y1="122.64" x2="289.74" y2="123.7"/><path class="cls-3" d="M102.14,335.66s23.61,8.81,22.55,19.73c0,0,4.58,14.8-21.14,24" transform="translate(-67.5 -247.9)"/><path class="cls-3" d="M357.74,337.29S334.13,346.1,335.19,357c0,0-4.59,14.8,21.14,24" transform="translate(-67.5 -247.9)"/></svg>