<svg id="Layer_2" data-name="Layer 2" xmlns="http://www.w3.org/2000/svg" viewBox="0 0 409.29 288.72"><defs><style>.cls-1{fill:none;stroke:#231f20;stroke-miterlimit:10;stroke-width:10px;}.cls-2{fill:#231f20;}</style></defs><circle class="cls-1" cx="241.21" cy="40.5" r="35.5"/><path class="cls-1" d="M269,254l23-22s12-17,24,0l62,74s17,36-21,21l-52-58s-1-12-13,5l-21,20s-25,16,6,16c0,0,46,5,41,75,0,0,30-5,30,16,0,0,2,14-24,13H295s-9.12,1.82-9.07-25c0-1.27,0-2.6.07-4,0,0,12-55-29-51H235l-13,46-53,30s-18,14-25-4,11-26,11-26l44-21,11-28,9.09-12.4L243,286Z" transform="translate(-100.29 -159)"/><path class="cls-1" d="M216.21,321.19s.51,16.53,20.37,12.62" transform="translate(-100.29 -159)"/><rect class="cls-2" x="116.85" y="345.92" width="15.48" height="71.86" rx="4.26" transform="translate(125.86 -165.76) rotate(32.72)"/><rect class="cls-2" x="309.68" y="399.76" width="15.74" height="77.63" rx="4.26" transform="translate(655.83 -37.98) rotate(90)"/><polygon class="cls-2" points="194.71 252.28 195.14 273.06 209.44 273.75 208.75 252.98 194.71 252.28"/><polygon class="cls-2" points="223.69 251.95 224.12 272.73 238.41 273.42 237.73 252.65 223.69 251.95"/><polygon class="cls-2" points="59.53 215.17 41.42 204.96 33.55 216.92 51.78 226.9 59.53 215.17"/><polygon class="cls-2" points="47.26 241.11 27.98 230.18 20.54 241.33 39.92 252.05 47.26 241.11"/><rect class="cls-2" x="416.26" y="311.95" width="15.74" height="144.95" rx="4.26" transform="translate(895.5 254.77) rotate(140.75)"/><rect class="cls-2" x="361.63" y="271.36" width="47.66" height="17.36" rx="8.68"/></svg>