<svg id="Layer_2" data-name="Layer 2" xmlns="http://www.w3.org/2000/svg" viewBox="0 0 228.23 213.85"><defs><style>.cls-1,.cls-3{fill:none;stroke:#231f20;stroke-miterlimit:10;}.cls-1{stroke-width:9px;}.cls-2{fill:#231f20;}.cls-3{stroke-width:11px;}</style></defs><path class="cls-1" d="M382.3,290.47l70.45,9s.69-5.52,5.53,11.05A93.19,93.19,0,0,0,474.85,354s8.29,13.13,6.22,41.44l.69,54.57s0,6.21-9.67,5.52l-8.86,0s-3.88,20.1,9.52,17.63c0,0,19,2.82,17.28,20.45L300.29,494.7s-2.82,0-.35-8.81c0,0,3.53-2.47-9.52,0,0,0-1.41-1.42,0-9.88,0,0,3.17-3.17-9.17,1.06,0,0-2.47-6,1.41-24,0,0-28.22-17.28,2.82-52.9,0,0,6.35-8.82,20.1-10.58,0,0,49.38-15.87,60.66-56.08C366.24,333.53,374,283.74,382.3,290.47Z" transform="translate(-266.41 -285.35)"/><path class="cls-1" d="M401.86,293.33s-6,73.7-73,111.44c0,0-23.28,9.88-32.8-12.34" transform="translate(-266.41 -285.35)"/><path class="cls-1" d="M323.57,382.2l13.75,17.28Z" transform="translate(-266.41 -285.35)"/><path class="cls-1" d="M343.32,368.45l13.75,15.16Z" transform="translate(-266.41 -285.35)"/><path class="cls-1" d="M359.19,349.05l14.46,16.57Z" transform="translate(-266.41 -285.35)"/><path class="cls-1" d="M368.36,327.53l16.57,18.34Z" transform="translate(-266.41 -285.35)"/><path class="cls-1" d="M372.59,304.26l19.4,20.1Z" transform="translate(-266.41 -285.35)"/><path class="cls-1" d="M271.73,435.44h74.76s8.47,1.76,10.58-2.12S271.73,435.44,271.73,435.44Z" transform="translate(-266.41 -285.35)"/><circle class="cls-2" cx="109.17" cy="140.07" r="4.41"/><path class="cls-3" d="M481.57,398.77l-58,.4s-22.56-1.58-34,16.18" transform="translate(-266.41 -285.35)"/><path class="cls-3" d="M481.92,418.88H430.08s-19.75-3.18-35.62,16.57c0,0-14.46,15.87-40.91,18.34l-68.78,1.06" transform="translate(-266.41 -285.35)"/><path class="cls-3" d="M303.82,455.91s0,13.75,10.23,16.57l18,.36s10.23-1.41,7.06-17.64Z" transform="translate(-266.41 -285.35)"/><path class="cls-3" d="M355,454.14s-2.82,18.7,14.46,19.05H434s15.16,1.76,11.28-19.05l21.16,1.06" transform="translate(-266.41 -285.35)"/><path class="cls-3" d="M425.84,419.58V448.5s-3.52,6,5.65,6,13.75-.36,13.75-.36" transform="translate(-266.41 -285.35)"/></svg>