<svg id="Layer_1" data-name="Layer 1" xmlns="http://www.w3.org/2000/svg" xmlns:xlink="http://www.w3.org/1999/xlink" viewBox="0 0 312.65 347.2"><defs><style>.cls-1,.cls-2{fill:none;stroke:#231f20;stroke-miterlimit:10;}.cls-1{stroke-width:9px;}.cls-2{stroke-width:5px;}</style></defs><path class="cls-1" d="M164,270.68s-13.68-20.85,3.26-27.36c0,0,15-9.77,26.71,5.86L354.17,426.37l69.5-10.4,13.22-2s18.89-5.21,23.45,14.33l.66,21.5s.65,10.42-14.34,26.7A71.06,71.06,0,0,1,405,482.39l-42.34,1.3s-8.46-5.21-32.57-31.92Z" transform="translate(-152.85 -235.8)"/><path class="cls-1" d="M424.52,485l-.85-69Z" transform="translate(-152.85 -235.8)"/><path class="cls-1" d="M241.47,303.9,216.72,328Z" transform="translate(-152.85 -235.8)"/><path class="cls-1" d="M313.13,382.07,289,406.17Z" transform="translate(-152.85 -235.8)"/><path class="cls-1" d="M382.83,421.81l3.25,59.93Z" transform="translate(-152.85 -235.8)"/><path class="cls-1" d="M362.63,483.69l78.17-3.26Z" transform="translate(-152.85 -235.8)"/><line class="cls-2" x1="209.16" y1="247.91" x2="287.93" y2="243.95"/><path class="cls-1" d="M454.39,271.29s13.68-20.84-3.25-27.36c0,0-15-9.77-26.71,5.86L264.18,427l-69.51-10.4-13.22-2s-18.89-5.21-23.45,14.33l-.65,21.5s-.65,10.42,14.33,26.71A71.13,71.13,0,0,0,213.37,483l42.34,1.3s8.47-5.21,32.58-31.92Z" transform="translate(-152.85 -235.8)"/><path class="cls-1" d="M193.83,485.6l.84-69Z" transform="translate(-152.85 -235.8)"/><path class="cls-1" d="M376.88,304.51l24.75,24.1Z" transform="translate(-152.85 -235.8)"/><path class="cls-1" d="M305.22,382.68l24.1,24.1Z" transform="translate(-152.85 -235.8)"/><path class="cls-1" d="M235.52,422.42l-3.26,59.93Z" transform="translate(-152.85 -235.8)"/><path class="cls-1" d="M255.71,484.3,177.55,481Z" transform="translate(-152.85 -235.8)"/><line class="cls-2" x1="103.49" y1="248.52" x2="24.73" y2="244.56"/><image width="512" height="512" transform="translate(116.15 264.2) scale(0.16)"/></svg>